<?xml version="1.0" encoding="UTF-8"?>
<svg width="100px" height="100px" viewBox="0 0 100 100" version="1.1" xmlns="http://www.w3.org/2000/svg" xmlns:xlink="http://www.w3.org/1999/xlink">
    <!-- Generator: Sketch 47.1 (45422) - http://www.bohemiancoding.com/sketch -->
    <title>icon</title>
    <desc>Created with Sketch.</desc>
    <defs></defs>
    <g id="Page-1" stroke="none" stroke-width="1" fill="none" fill-rule="evenodd">
        <g id="icon">
            <g id="Group-5" transform="translate(1.000000, 2.000000)">
                <rect id="Rectangle-4" stroke="#862218" stroke-width="4" x="31" y="2" width="52" height="92" rx="3"></rect>
                <circle id="Oval-4" fill="#862218" cx="58" cy="82" r="7"></circle>
                <rect id="Rectangle-4" stroke="#862218" stroke-width="4" x="41" y="18" width="33" height="51" rx="3"></rect>
                <rect id="Rectangle-6" fill="#862218" x="46" y="8" width="24" height="3" rx="1.5"></rect>
                <rect id="Rectangle-6" fill="#862218" x="0" y="29" width="24" height="4" rx="2"></rect>
                <rect id="Rectangle-6" fill="#862218" x="10" y="39" width="15" height="4" rx="2"></rect>
                <rect id="Rectangle-6" fill="#862218" x="16" y="48" width="8" height="4" rx="2"></rect>
                <rect id="Rectangle-5" fill="#FFFFFF" x="66" y="26" width="22" height="35"></rect>
                <path d="M94.1015939,35.3106095 L92.1745718,36.1082801 C91.523759,35.2475724 90.7522698,34.4785187 89.9039318,33.841543 L90.7026383,31.9070019 C90.9453923,31.3218568 90.6660151,30.6484596 90.0814444,30.4065168 L86.9002269,29.087739 C86.315456,28.8459964 85.6440302,29.12336 85.4010762,29.7085051 L84.5933639,31.6422457 C83.5434981,31.4927576 82.455208,31.4889553 81.3859298,31.6394441 L80.5884241,29.713308 C80.34547,29.1271622 79.6880531,28.8441953 79.1014811,29.0871386 L75.919263,30.4049159 C75.3354928,30.6468586 75.0685235,31.3122511 75.3122781,31.8987971 L76.1097838,33.8249332 C75.2486377,34.4751167 74.4799502,35.2477725 73.8429462,36.0964731 L71.9097202,35.2974018 C71.3229481,35.0546586 70.6505217,35.3338232 70.4077677,35.9193686 L69.0889313,39.1008452 C68.8459773,39.6863906 69.1243538,40.3573864 69.7091247,40.5997293 L71.6425508,41.4058048 C71.493056,42.4560243 71.4912548,43.5450667 71.6387484,44.6134969 L69.7127269,45.4111674 C69.1279561,45.6531101 68.8441761,46.3118987 69.0869301,46.8986448 L70.4039653,50.0783203 C70.6467193,50.6648663 71.311741,50.9296225 71.8993136,50.6868793 L73.8261356,49.8892088 C74.4771484,50.7509171 75.2468366,51.5189701 76.0957749,52.1569464 L75.2982692,54.0912874 C75.0553151,54.6778334 75.3338918,55.35023 75.9194631,55.5931733 L79.0998801,56.9119512 C79.6864521,57.1546944 80.3570774,56.8763302 80.5998313,56.2917854 L81.406743,54.3574444 C82.4566088,54.5069326 83.5456995,54.5087336 84.6149776,54.3612466 L85.4126835,56.2881832 C85.654637,56.872728 86.3130545,57.1556949 86.8986259,56.9129518 L90.0798433,55.5959749 C90.6656148,55.3532318 90.9317836,54.6872389 90.6888296,54.1006929 L89.8913238,52.1757575 C90.7514693,51.5239731 91.5201568,50.7529182 92.1571607,49.9044178 L94.0913874,50.7034891 C94.6771589,50.9462323 95.3495853,50.6670676 95.5923393,50.0815222 L96.9111756,46.9018467 C97.1541297,46.3153007 96.8765537,45.6443049 96.2909823,45.401962 L94.355755,44.595086 C94.507051,43.545667 94.5088521,42.4566246 94.360358,41.387394 L96.2861793,40.5897234 C96.8727513,40.3469803 97.1557307,39.6889921 96.9129768,39.1024462 L95.5959415,35.9227706 C95.3531876,35.333423 94.6871652,35.0686668 94.1015939,35.3106095 Z M85.195746,48.301072 C82.267689,49.5137873 78.9109603,48.1231671 77.6983913,45.1946397 C76.4844214,42.2663124 77.8751033,38.910533 80.8031603,37.6978176 C83.7322178,36.4851023 87.0889466,37.8757226 88.3015156,40.80425 C89.5146849,43.7317768 88.124003,47.0883567 85.195746,48.301072 Z" id="Shape" fill="#862218" fill-rule="nonzero"></path>
            </g>
        </g>
    </g>
</svg>