<?xml version="1.0" encoding="UTF-8"?>
<svg width="100px" height="100px" viewBox="0 0 100 100" version="1.1" xmlns="http://www.w3.org/2000/svg" xmlns:xlink="http://www.w3.org/1999/xlink">
    <!-- Generator: Sketch 47.1 (45422) - http://www.bohemiancoding.com/sketch -->
    <title>icon</title>
    <desc>Created with Sketch.</desc>
    <defs></defs>
    <g id="Page-1" stroke="none" stroke-width="1" fill="none" fill-rule="evenodd">
        <g id="icon">
            <g id="Group-5" transform="translate(3.000000, 3.000000)">
                <rect id="Rectangle-4" stroke="#862218" stroke-width="4" x="30" y="2" width="51" height="89" rx="3"></rect>
                <circle id="Oval-4" fill="#862218" cx="56" cy="83" r="2"></circle>
                <rect id="Rectangle-4" stroke="#862218" stroke-width="4" x="39" y="21" width="31" height="56" rx="3"></rect>
                <rect id="Rectangle-6" fill="#862218" x="44" y="10" width="23" height="4" rx="2"></rect>
                <rect id="Rectangle-6" fill="#862218" x="0" y="28" width="23" height="4" rx="2"></rect>
                <rect id="Rectangle-6" fill="#862218" x="10" y="37" width="14" height="4" rx="2"></rect>
                <rect id="Rectangle-6" fill="#862218" x="16" y="47" width="8" height="4" rx="2"></rect>
                <rect id="Rectangle-5" fill="#FFFFFF" x="64" y="25" width="22" height="34"></rect>
                <path d="M91.2051084,33.0852306 L89.3469085,33.8544129 C88.7193391,33.0244448 87.975403,32.2828573 87.1573628,31.6686308 L87.9275441,29.8031804 C88.1616282,29.2389333 87.8922288,28.589586 87.3285356,28.3562841 L84.2609331,27.0846054 C83.6970469,26.8514965 83.0496006,27.1189543 82.8153234,27.6832014 L82.0364581,29.5478798 C81.0240875,29.4037305 79.9746648,29.4000641 78.9435752,29.5451782 L78.1745518,27.6878327 C77.9402746,27.1226207 77.3063369,26.8497598 76.7407139,27.0840265 L73.6721465,28.3547403 C73.1092252,28.5880422 72.8517905,29.2296707 73.0868396,29.7952686 L73.855863,31.6526142 C73.0254721,32.2795768 72.2842377,33.0246377 71.6699839,33.8430276 L69.8058016,33.0724945 C69.2399857,32.8384208 68.5915745,33.1076153 68.3574903,33.6722483 L67.0857552,36.7401008 C66.8514781,37.3047338 67.1199126,37.9517655 67.6837988,38.1854533 L69.548174,38.9627404 C69.4040183,39.975452 69.4022815,41.0256 69.5445074,42.055872 L67.6872724,42.8250543 C67.1233862,43.0583562 66.8497413,43.6936166 67.0838254,44.2594075 L68.3538237,47.3255232 C68.5879079,47.8911211 69.2291788,48.1464217 69.7957667,47.9123479 L71.6537736,47.1431656 C72.281536,47.9740986 73.0237353,48.7147212 73.8423544,49.3299126 L73.073331,51.19517 C72.8390538,51.7607679 73.1076813,52.4091503 73.6723394,52.6434171 L76.7391701,53.9150958 C77.3047931,54.1491696 77.9514675,53.8807469 78.1855516,53.3170787 L78.9636451,51.4518214 C79.9760157,51.5959707 81.0262103,51.5977074 82.0572999,51.4554878 L82.8265163,53.3136053 C83.0598285,53.8772735 83.6947311,54.1501344 84.2593892,53.9160606 L87.3269918,52.6461187 C87.8918429,52.4120449 88.1485056,51.7698375 87.9142285,51.2042396 L87.1452051,49.3480519 C87.9746311,48.7195454 88.7158654,47.9760283 89.3301193,47.1578314 L91.1952664,47.9283645 C91.7601175,48.1624383 92.4085287,47.8932438 92.6426129,47.3286107 L93.9143479,44.262495 C94.1486251,43.6968971 93.8809625,43.0498654 93.3163044,42.8161776 L91.4501924,42.0381187 C91.5960849,41.0261789 91.5978217,39.9760309 91.4546309,38.944987 L93.3116729,38.1758048 C93.8772959,37.941731 94.1501689,37.3072424 93.9160847,36.7416445 L92.6460865,33.6755288 C92.4120023,33.1072293 91.7697665,32.8519287 91.2051084,33.0852306 Z M82.6173265,45.611748 C79.793843,46.7811521 76.5569974,45.4401968 75.3877345,42.6162597 C74.2171206,39.7925155 75.5581354,36.5565854 78.3816188,35.3871813 C81.2060672,34.2177772 84.4429128,35.5587325 85.6121757,38.3826696 C86.7820176,41.2056419 85.4410029,44.4423439 82.6173265,45.611748 Z" id="Shape" fill="#862218" fill-rule="nonzero"></path>
            </g>
        </g>
    </g>
</svg>