<?xml version="1.0" encoding="UTF-8"?>
<svg width="100px" height="100px" viewBox="0 0 100 100" version="1.1" xmlns="http://www.w3.org/2000/svg" xmlns:xlink="http://www.w3.org/1999/xlink">
    <!-- Generator: Sketch 47.1 (45422) - http://www.bohemiancoding.com/sketch -->
    <title>icon_3</title>
    <desc>Created with Sketch.</desc>
    <defs></defs>
    <g id="Page-1" stroke="none" stroke-width="1" fill="none" fill-rule="evenodd">
        <g id="icon_3">
            <g id="Group-13" transform="translate(4.000000, 5.837398)">
                <g id="noun_995882_cc" transform="translate(31.515225, 78.287337)" stroke-width="2" stroke="#862218" fill="#862218" fill-rule="nonzero">
                    <g id="Group">
                        <path d="M4.88743569,0.297724472 L4.88743569,8.98982675 L1.11541005,8.98982675 L1.11541005,8.98982675 C0.543920106,8.98982675 0.0806359692,9.45311089 0.0806359692,10.0246008 L0.0806359692,10.0246008 L0.0806359692,10.0246008 C0.0806359692,10.5960908 0.543920106,11.0593749 1.11541005,11.0593749 L33.213114,11.0593749 L33.213114,11.0593749 C33.7846039,11.0593749 34.247888,10.5960908 34.247888,10.0246008 L34.247888,10.0246008 L34.247888,10.0246008 C34.247888,9.45311089 33.7846039,8.98982675 33.213114,8.98982675 L29.4410883,8.98982675 L29.4410883,0.297724472 L4.88743569,0.297724472 Z M6.70622477,8.85185687 L6.70622477,0.159754595 L27.2325587,0.159754595 L27.2325587,8.85185687 L6.70622477,8.85185687 Z" id="Shape"></path>
                    </g>
                </g>
                <path d="M1.51813432,77.6625179 L29.6428578,77.6625179" id="Line-18" stroke="#862218" stroke-width="4" stroke-linecap="round" stroke-linejoin="round"></path>
                <path d="M9.75471239,60.0289993 L82.4402186,60.0289993" id="Line-18" stroke="#862218" stroke-width="4" stroke-linecap="round" stroke-linejoin="round"></path>
                <circle id="Oval-8" fill="#862218" cx="46.1472932" cy="68.658168" r="2.62626872"></circle>
                <path d="M37.3774591,77.6625179 L91.1725821,77.6625179" id="Line-18" stroke="#862218" stroke-width="4" stroke-linecap="round" stroke-linejoin="round"></path>
                <path d="M1.51813432,12.3809811 L15.580496,12.3809811" id="Line-18" stroke="#862218" stroke-width="4" stroke-linecap="round" stroke-linejoin="round"></path>
                <path d="M77.3047459,12.3809811 L91.3671077,12.3809811" id="Line-18" stroke="#862218" stroke-width="4" stroke-linecap="round" stroke-linejoin="round"></path>
                <path d="M1.47946913,13.081718 L1.1290831,76.9121554" id="Line-18" stroke="#862218" stroke-width="4" stroke-linecap="round" stroke-linejoin="round"></path>
                <g id="Group-11" transform="translate(21.010150, 0.000000)" stroke="#862218" stroke-width="4" stroke-linecap="round" stroke-linejoin="round">
                    <path d="M6.59491852,18.383881 L20.131881,18.383881" id="Line-18"></path>
                    <path d="M10.8837955,27.311313 L10.8837955,51.3748408" id="Line-18"></path>
                    <path d="M20.6607024,51.3998307 C20.6607024,29.1721389 20.6607024,18.058293 20.6607024,18.058293 C20.6607024,18.058293 11.0544791,-0.248382853 10.8313142,0.138666246 C4.76654527,10.6571782 0.378720613,18.058293 0.378720613,18.058293 C0.378720613,18.058293 0.378720613,29.1721389 0.378720613,51.3998307" id="Line-18"></path>
                </g>
                <g id="Group-11" transform="translate(51.775012, 0.000000)" stroke-linecap="round" stroke-width="4" stroke="#862218" stroke-linejoin="round">
                    <g id="Group-12">
                        <path d="M1.5839967,42.5587458 L9.69566622,42.5587458" id="Line-18"></path>
                        <path d="M14.9240884,30.2075629 C16.2598919,33.4330873 17.1406116,36.8973502 17.5662474,40.6003514 C17.9918833,44.3033527 18.0978051,47.7676156 17.884013,50.99314" id="Line-18"></path>
                        <path d="M0.228294287,51.1798475 C0.228294287,45.7640518 0.642954189,40.9292059 1.47227399,36.6753096 C2.7162537,30.2944653 4.45242088,26.7192027 4.79189121,26.4261084 C5.52385027,25.7941443 15.3845062,29.2894263 17.4831896,20.8595539 C19.5818731,12.4296815 9.56227529,-0.191192429 9.33058919,0.132888486 C1.47227399,11.1250453 0.228294287,16.8116307 0.768871856,20.8595539" id="Line-18"></path>
                    </g>
                </g>
                <path d="M91.5229681,13.081718 L91.1725821,76.9121554" id="Line-18" stroke="#862218" stroke-width="4" stroke-linecap="round" stroke-linejoin="round"></path>
            </g>
        </g>
    </g>
</svg>