<?xml version="1.0" encoding="UTF-8"?>
<svg width="100px" height="100px" viewBox="0 0 100 100" version="1.1" xmlns="http://www.w3.org/2000/svg" xmlns:xlink="http://www.w3.org/1999/xlink">
    <!-- Generator: Sketch 47.1 (45422) - http://www.bohemiancoding.com/sketch -->
    <title>icon_3</title>
    <desc>Created with Sketch.</desc>
    <defs></defs>
    <g id="Page-1" stroke="none" stroke-width="1" fill="none" fill-rule="evenodd">
        <g id="icon_3" fill-rule="nonzero" fill="#862218">
            <g id="noun_995882_cc" transform="translate(5.000000, 11.000000)">
                <g id="Group">
                    <path d="M87.1522388,0.177614858 L4.04776119,0.177614858 C1.97014925,0.177614858 0.308059701,1.93831867 0.308059701,4.13919844 L0.308059701,63.4162268 C0.308059701,65.6171065 1.97014925,67.5245357 4.18626866,67.5245357 L32.718806,67.5245357 L32.718806,76.7682307 L28.6944697,76.7682307 L28.6944697,76.7682307 C28.0867136,76.7682307 27.5940299,77.2609144 27.5940299,77.8686706 L27.5940299,77.8686706 L27.5940299,77.8686706 C27.5940299,78.4764267 28.0867136,78.9691105 28.6944697,78.9691105 L62.9210527,78.9691105 L62.9210527,78.9691105 C63.5288088,78.9691105 64.0214925,78.4764267 64.0214925,77.8686706 L64.0214925,77.8686706 L64.0214925,77.8686706 C64.0214925,77.2609144 63.5288088,76.7682307 62.9210527,76.7682307 L58.8967164,76.7682307 L58.8967164,67.5245357 L87.4292537,67.5245357 C89.5068657,67.5245357 91.3074627,65.7638319 91.3074627,63.4162268 L91.3074627,4.13919844 C91.0304478,1.93831867 89.2298507,0.177614858 87.1522388,0.177614858 Z M4.04776119,2.37849462 L87.1522388,2.37849462 C88.121791,2.37849462 88.9528358,3.25884653 88.9528358,4.28592375 L88.9528358,58.5742913 L2.38567164,58.5742913 L2.38567164,4.28592375 C2.38567164,3.11212121 3.07820896,2.37849462 4.04776119,2.37849462 Z M56.5420896,76.6215054 L34.6579104,76.6215054 L34.6579104,67.3778104 L56.5420896,67.3778104 L56.5420896,76.6215054 L56.5420896,76.6215054 Z M87.1522388,65.3236559 L4.04776119,65.3236559 C3.07820896,65.3236559 2.38567164,64.443304 2.38567164,63.4162268 L2.38567164,60.6284457 L88.9528358,60.6284457 L88.9528358,63.4162268 C88.9528358,64.443304 88.121791,65.3236559 87.1522388,65.3236559 Z" id="Shape" stroke="#862218"></path>
                    <path d="M75.1020896,51.2380254 C79.6728358,51.2380254 83.4125373,47.2764418 83.4125373,42.4345064 L83.4125373,35.8318671 C83.4125373,31.5768328 80.5038806,27.9086999 76.6256716,27.1750733 C78.4262687,21.8929619 77.4567164,20.2789834 75.7946269,18.3715543 C74.8250746,17.1977517 73.7170149,16.0239492 73.7170149,12.3558162 L71.639403,12.3558162 C71.639403,16.9043011 73.1629851,18.6650049 74.2710448,19.8388074 C75.5176119,21.1593353 76.2101493,22.0396872 74.4095522,27.028348 C70.2543284,27.4685239 66.9301493,31.1366569 66.9301493,35.6851417 L66.9301493,42.287781 C66.7916418,47.2764418 70.5313433,51.2380254 75.1020896,51.2380254 Z M68.8692537,35.8318671 C68.8692537,32.1637341 71.639403,29.2292278 75.1020896,29.2292278 C78.5647761,29.2292278 81.3349254,32.1637341 81.3349254,35.8318671 L81.3349254,42.4345064 C81.3349254,46.1026393 78.5647761,49.0371457 75.1020896,49.0371457 C71.639403,49.0371457 68.8692537,46.1026393 68.8692537,42.4345064 L68.8692537,35.8318671 Z" id="Shape" stroke="#862218"></path>
                    <rect id="Rectangle-path" x="74.1325373" y="32.6039101" width="2.07761194" height="3.22795699"></rect>
                    <path d="M49.201194,40.6738025 C49.0626866,40.5270772 48.7856716,40.5270772 48.6471642,40.5270772 L19.560597,40.5270772 C19.560597,40.5270772 19.560597,40.5270772 19.560597,40.5270772 L15.4053731,40.5270772 C12.2197015,40.5270772 9.5880597,43.3148583 9.5880597,46.6895406 C9.5880597,50.0642229 12.2197015,52.8520039 15.4053731,52.8520039 L19.560597,52.8520039 C19.560597,52.8520039 19.560597,52.8520039 19.560597,52.8520039 L48.6471642,52.8520039 C48.9241791,52.8520039 49.0626866,52.7052786 49.201194,52.7052786 L49.201194,52.7052786 L57.7886567,46.6895406 L49.201194,40.6738025 L49.201194,40.6738025 Z M47.6776119,45.515738 L20.6686567,45.515738 L20.6686567,42.5812317 L47.6776119,42.5812317 L47.6776119,45.515738 Z M11.6656716,46.6895406 C11.6656716,44.4886608 13.3277612,42.727957 15.4053731,42.727957 L18.5910448,42.727957 L18.5910448,50.6511241 L15.4053731,50.6511241 C13.3277612,50.6511241 11.6656716,48.8904203 11.6656716,46.6895406 Z M20.6686567,50.6511241 L20.6686567,47.7166178 L47.6776119,47.7166178 L47.6776119,50.5043988 L20.6686567,50.6511241 Z M49.7552239,49.6240469 L49.7552239,43.6083089 L54.0489552,46.6895406 L49.7552239,49.6240469 Z" id="Shape" stroke="#862218"></path>
                    <path d="M17.76,29.816129 C23.0232836,32.7506354 28.1480597,34.3646139 33.1343284,34.3646139 C33.1343284,34.3646139 33.2728358,34.3646139 33.2728358,34.3646139 C33.2728358,34.3646139 33.4113433,34.3646139 33.4113433,34.3646139 C38.3976119,34.3646139 43.5223881,32.7506354 48.7856716,29.816129 C54.88,26.2947214 58.758209,22.1864125 59.0352239,22.0396872 L59.7277612,21.3060606 L59.0352239,20.572434 C58.758209,20.2789834 51.278806,12.3558162 40.8907463,9.27458456 C38.6746269,8.68768328 36.4585075,8.24750733 34.2423881,8.24750733 C33.9653731,8.24750733 33.5498507,8.24750733 33.2728358,8.24750733 C32.9958209,8.24750733 32.5802985,8.24750733 32.3032836,8.24750733 C30.0871642,8.39423265 27.8710448,8.68768328 25.6549254,9.27458456 C15.2668657,12.2090909 7.78746269,20.1322581 7.51044776,20.572434 L6.81791045,21.1593353 L7.51044776,22.0396872 C7.64895522,22.1864125 11.6656716,26.2947214 17.76,29.816129 Z M22.8847761,21.1593353 C22.8847761,15.4370479 27.04,10.7418377 32.3032836,10.3016618 C32.8573134,10.3016618 33.5498507,10.3016618 34.1038806,10.3016618 C39.3671642,10.7418377 43.5223881,15.4370479 43.5223881,21.1593353 C43.5223881,27.1750733 38.9516418,32.0170088 33.2728358,32.0170088 C33.2728358,32.0170088 33.1343284,32.0170088 33.1343284,32.0170088 C33.1343284,32.0170088 32.9958209,32.0170088 32.9958209,32.0170088 C27.4555224,32.0170088 22.8847761,27.1750733 22.8847761,21.1593353 Z M56.680597,21.1593353 C55.2955224,22.4798631 52.1098507,25.4143695 47.8161194,27.7619746 C45.8770149,28.9357771 43.9379104,29.816129 41.998806,30.4030303 C44.3534328,28.0554252 45.7385075,24.6807429 45.7385075,21.01261 C45.7385075,17.344477 44.3534328,13.9697947 41.998806,11.6221896 C49.201194,14.4099707 54.7414925,19.3986315 56.680597,21.1593353 Z M24.5468657,11.9156403 C22.1922388,14.2632454 20.8071642,17.6379277 20.8071642,21.3060606 C20.8071642,24.9741935 22.1922388,28.3488759 24.5468657,30.6964809 C22.6077612,29.9628543 20.6686567,29.0825024 18.7295522,28.0554252 C14.4358209,25.4143695 11.2501493,22.6265885 9.72656716,21.1593353 C11.8041791,19.3986315 17.3444776,14.4099707 24.5468657,11.9156403 Z" id="Shape" stroke="#862218"></path>
                    <path d="M37.1510448,21.1593353 C37.1510448,18.9584555 35.3504478,17.0510264 33.2728358,17.0510264 C31.1952239,17.0510264 29.3946269,18.9584555 29.3946269,21.1593353 C29.3946269,23.3602151 31.1952239,25.2676442 33.2728358,25.2676442 C35.3504478,25.2676442 37.1510448,23.5069404 37.1510448,21.1593353 Z M31.4722388,21.1593353 C31.4722388,20.1322581 32.3032836,19.2519062 33.2728358,19.2519062 C34.2423881,19.2519062 35.0734328,20.1322581 35.0734328,21.1593353 C35.0734328,22.1864125 34.2423881,23.0667644 33.2728358,23.0667644 C32.3032836,23.0667644 31.4722388,22.3331378 31.4722388,21.1593353 Z" id="Shape" stroke="#862218"></path>
                </g>
            </g>
        </g>
    </g>
</svg>